# xmcd
#
# Track frame offsets: 
#        150
#        15065
#        27644
#        44050
#        62456
#        76686
#        95228
#        107833
#        121449
#        137900
#        156783
#        169580
#        183298
#
# Disc length: 2663 seconds
#
# Revision: 0
# Processed by: cddbd v1.5.2PL0 Copyright (c) Steve Scherf et al.
# Submitted via: ExactAudioCopy v0.99pb4
#
DISCID=a40a650d
DTITLE=Leona Williams - Leona Williams Sings Merle Haggard
DYEAR=2008
DGENRE=Country
TTITLE0=Workin' Girl Blues
TTITLE1=Bottle Let Me Down
TTITLE2=It's Not Love
TTITLE3=I Started Loving You Again
TTITLE4=If We're Not Back In Love By Monday
TTITLE5=Daddy Frank (The Guitar Man)
TTITLE6=You Take Me For Granted
TTITLE7=Fighting Side Of Me
TTITLE8=Hungry Eyes
TTITLE9=Someday When Things Are Good
TTITLE10=If We Make It Through December
TTITLE11=Okie From Muskogee
TTITLE12=Medley
EXTD=
EXTT0=
EXTT1=
EXTT2=
EXTT3=
EXTT4=
EXTT5=
EXTT6=
EXTT7=
EXTT8=
EXTT9=
EXTT10=
EXTT11=
EXTT12=
PLAYORDER=
